<?xml version="1.0" encoding="utf-8"?>
<!-- Generator: Adobe Illustrator 24.3.0, SVG Export Plug-In . SVG Version: 6.00 Build 0)  -->
<svg version="1.1" xmlns="http://www.w3.org/2000/svg" xmlns:xlink="http://www.w3.org/1999/xlink" x="0px" y="0px"
	 viewBox="0 0 122.9 113.1" style="enable-background:new 0 0 122.9 113.1;" xml:space="preserve">
<style type="text/css">
	.st0{fill-rule:evenodd;clip-rule:evenodd;fill:#FFED00;}
	.st1{fill-rule:evenodd;clip-rule:evenodd;}
</style>
<g id="Laag_2">
	<circle class="st0" cx="61.4" cy="56.6" r="56.6"/>
</g>
<g id="Layer_1">
	<g>
		<path class="st1" d="M83.6,62.4c7.1,0,12.9,6.4,12.9,14.3c0,7.9-5.8,14.3-12.9,14.3c-7.1,0-12.9-6.4-12.9-14.3
			c0-5.1,2-9.1,5.6-11.6l-3.2-5.9h-8.4c0.9-2,1.4-3.8,1.3-4.8h8.6c0.4,0,0.7,0.1,1,0.3l0.9-2.1l0.2,0l0,0c0.1,0,0.2,0,0.2,0
			c2.3-0.5,3.7-2.1,4.3-4c0.3-0.9,0.3-1.8,0.2-2.7c-0.1-0.9-0.4-1.8-0.8-2.5c-0.2-0.3-0.4-0.7-0.6-0.9h2.1v0c0.3,0,0.6,0.1,0.8,0.2
			c1,0.5,1.4,1.8,0.9,2.9l-5.7,13.3l2.2,4.2C81.4,62.5,82.5,62.4,83.6,62.4L83.6,62.4z M46.8,39.8l11.8-9.5c1.4-1,2.9-1.6,4.1-1.4
			c1,0.1,1.9,0.8,2.8,1.9c2.6,3.5,3.8,8.4,5.2,13.7l5-0.6c2.8-0.1,3.6,4.5,0.7,5.1l-5.1,0.6c-2.3,0.3-4,1-5.2-1.9L63.2,40l-8,6.2
			c-0.5,0.6-0.6,1.1-0.1,1.7l6,4.8c0.8,0.6,1.5,1,1.6,2.2c0.2,1.8-6.5,13.5-7.7,15.7c-2.1,2.5-6,0.2-4.4-2.8l4.6-10.6
			c-1.4-0.9-2.7-1.8-3.9-2.7C47.1,51.4,41.5,44.6,46.8,39.8L46.8,39.8z M73.4,20.8c3.1,0,5.6,2.8,5.6,6.2s-2.5,6.2-5.6,6.2
			s-5.6-2.8-5.6-6.2C67.8,23.6,70.3,20.8,73.4,20.8L73.4,20.8z M50.7,59.1h-2.7l-1.6,5.1c0.6,0.3,1.1,0.6,1.6,1l-0.4,0.9
			c-0.6,1.3-0.8,2.5-0.7,3.6c-0.7-0.8-1.6-1.5-2.5-2.1l0,0l-3.2,8.1c-0.4,1.1-1.6,1.6-2.6,1.1c-1-0.5-1.4-1.8-1-2.8l2.9-7.3
			c0,0-0.1,0-0.1,0c-5,0-9,4.5-9,10c0,5.5,4,10,9,10c5,0,9-4.5,9-10c0-1-0.1-1.9-0.4-2.8c0.1,0.1,0.2,0.1,0.3,0.2
			c0.7,0.5,1.5,0.9,2.4,1.1c0.5,0.1,1,0.1,1.5,0.1c0,0.5,0.1,0.9,0.1,1.4c0,7.9-5.8,14.3-12.9,14.3c-7.1,0-12.9-6.4-12.9-14.3
			c0-7.9,5.8-14.3,12.9-14.3c0.6,0,1.2,0,1.8,0.1l2.3-6.9c0.3-0.7,0.8-1.1,1.4-1.2c1.2,1.2,2.4,2.3,3.5,3.1c0.3,0.2,0.8,0.6,1.5,1
			L50.7,59.1L50.7,59.1z M40,44.6h1.3c0,0.7,0.1,1.4,0.3,2.1c0.3,1.5,1,3,1.8,4.3H40l0,0l0,0c-0.6,0-1.2-0.3-1.6-0.8
			c-0.4-0.5-0.7-1.1-0.7-1.8l0,0l0,0v-1.2l0,0l0,0c0-0.7,0.3-1.4,0.7-1.8C38.8,44.9,39.4,44.6,40,44.6L40,44.6L40,44.6L40,44.6
			L40,44.6z M82.6,66.8l3.1,5.3c0.6,1,0.3,2.3-0.6,3c-0.9,0.7-2.1,0.4-2.7-0.6l-3.7-6.2c-2.6,1.8-4.2,4.9-4.2,8.5c0,5.5,4,10,9,10
			s9-4.5,9-10c0-5.5-4-10-9-10C83.2,66.7,82.9,66.7,82.6,66.8L82.6,66.8L82.6,66.8z"/>
	</g>
</g>
</svg>
