<?xml version="1.0" encoding="utf-8"?>
<!-- Generator: Adobe Illustrator 24.3.0, SVG Export Plug-In . SVG Version: 6.00 Build 0)  -->
<svg version="1.1" xmlns="http://www.w3.org/2000/svg" xmlns:xlink="http://www.w3.org/1999/xlink" x="0px" y="0px"
	 viewBox="0 0 122.9 113.1" style="enable-background:new 0 0 122.9 113.1;" xml:space="preserve">
<style type="text/css">
	.st0{fill-rule:evenodd;clip-rule:evenodd;fill:#FFED00;}
	.st1{fill-rule:evenodd;clip-rule:evenodd;}
</style>
<g id="Laag_2">
	<circle class="st0" cx="62.7" cy="57.3" r="31.8"/>
</g>
<g id="Layer_1">
	<g>
		<path class="st1" d="M76.5,60.5c4.4,0,8,3.6,8,8c0,4.4-3.6,8-8,8s-8-3.6-8-8c0-2.8,1.2-5.1,3.5-6.5l-2-3.3h-5.2
			c0.5-1.1,0.9-2.1,0.8-2.7h5.3c0.2,0,0.4,0.1,0.6,0.2l0.6-1.2l0.1,0l0,0c0,0,0.1,0,0.2,0c1.4-0.3,2.3-1.2,2.6-2.2
			c0.2-0.5,0.2-1,0.1-1.5c-0.1-0.5-0.2-1-0.5-1.4c-0.1-0.2-0.2-0.4-0.4-0.5h1.3v0c0.2,0,0.3,0,0.5,0.1c0.6,0.3,0.9,1,0.6,1.6
			l-3.5,7.4l1.4,2.3C75.2,60.6,75.8,60.5,76.5,60.5L76.5,60.5z M53.7,47.9l7.3-5.3c0.9-0.5,1.8-0.9,2.5-0.8c0.6,0.1,1.2,0.4,1.7,1.1
			c1.6,2,2.4,4.7,3.2,7.6l3.1-0.4c1.8-0.1,2.2,2.5,0.4,2.8l-3.2,0.3c-1.4,0.2-2.5,0.5-3.2-1L63.9,48l-5,3.4c-0.3,0.3-0.4,0.6,0,0.9
			l3.7,2.7c0.5,0.3,0.9,0.6,1,1.2c0.2,1-4,7.5-4.8,8.8c-1.3,1.4-3.7,0.1-2.7-1.6l2.8-5.9c-0.8-0.5-1.7-1-2.4-1.5
			C53.9,54.4,50.4,50.6,53.7,47.9L53.7,47.9z M70.2,37.3c1.9,0,3.5,1.5,3.5,3.4s-1.5,3.4-3.5,3.4s-3.5-1.5-3.5-3.4
			S68.3,37.3,70.2,37.3L70.2,37.3z M56.1,58.7h-1.7l-1,2.8c0.4,0.2,0.7,0.4,1,0.6l-0.2,0.5c-0.4,0.7-0.5,1.4-0.4,2
			c-0.5-0.5-1-0.9-1.6-1.1l0,0l-2,4.5c-0.3,0.6-1,0.9-1.6,0.6c-0.6-0.3-0.9-1-0.6-1.6l1.8-4.1c0,0,0,0-0.1,0c-3.1,0-5.6,2.5-5.6,5.6
			c0,3.1,2.5,5.5,5.6,5.5c3.1,0,5.6-2.5,5.6-5.5c0-0.5-0.1-1.1-0.2-1.6c0.1,0,0.1,0.1,0.2,0.1c0.4,0.3,1,0.5,1.5,0.6
			c0.3,0.1,0.6,0.1,1,0c0,0.3,0,0.5,0,0.8c0,4.4-3.6,8-8,8c-4.4,0-8-3.6-8-8c0-4.4,3.6-8,8-8c0.4,0,0.7,0,1.1,0.1l1.4-3.8
			c0.2-0.4,0.5-0.6,0.9-0.7c0.7,0.7,1.5,1.3,2.2,1.7c0.2,0.1,0.5,0.3,0.9,0.6L56.1,58.7L56.1,58.7z M49.5,50.6h0.8
			c0,0.4,0.1,0.8,0.2,1.2c0.2,0.8,0.6,1.6,1.1,2.4h-2.1l0,0l0,0c-0.4,0-0.8-0.2-1-0.4c-0.3-0.3-0.4-0.6-0.4-1l0,0l0,0V52l0,0l0,0
			c0-0.4,0.2-0.8,0.4-1C48.7,50.7,49.1,50.6,49.5,50.6L49.5,50.6L49.5,50.6L49.5,50.6L49.5,50.6z M75.9,62.9l1.9,3
			c0.4,0.6,0.2,1.3-0.4,1.7c-0.6,0.4-1.3,0.2-1.7-0.4l-2.3-3.5c-1.6,1-2.6,2.7-2.6,4.7c0,3.1,2.5,5.5,5.6,5.5c3.1,0,5.6-2.5,5.6-5.5
			c0-3.1-2.5-5.6-5.6-5.6C76.3,62.9,76.1,62.9,75.9,62.9L75.9,62.9L75.9,62.9z"/>
	</g>
</g>
</svg>
