<?xml version="1.0" standalone="no"?>
<!DOCTYPE svg PUBLIC "-//W3C//DTD SVG 20010904//EN"
 "http://www.w3.org/TR/2001/REC-SVG-20010904/DTD/svg10.dtd">
<svg version="1.0" xmlns="http://www.w3.org/2000/svg"
 width="984.000000pt" height="984.000000pt" viewBox="0 0 984.000000 984.000000"
 preserveAspectRatio="xMidYMid meet">
<metadata>
Created by potrace 1.11, written by Peter Selinger 2001-2013
</metadata>
<g transform="translate(0.000000,984.000000) scale(0.100000,-0.100000)"
fill="#000000" stroke="none">
<path d="M4669 9435 c-2 -1 -47 -6 -99 -9 -52 -4 -108 -8 -125 -10 -16 -2 -57
-7 -90 -11 -50 -5 -209 -31 -305 -49 -14 -3 -36 -7 -50 -10 -14 -2 -56 -12
-95 -21 -38 -9 -79 -19 -90 -21 -26 -5 -47 -10 -65 -17 -8 -3 -44 -13 -80 -22
-77 -21 -297 -92 -325 -106 -11 -5 -49 -20 -85 -32 -36 -13 -76 -30 -89 -40
-14 -9 -27 -14 -31 -12 -4 2 -56 -20 -116 -49 -60 -28 -124 -58 -141 -65 -18
-8 -33 -17 -33 -22 0 -5 -6 -9 -14 -9 -7 0 -46 -18 -86 -40 -40 -22 -77 -40
-81 -40 -5 0 -9 -4 -9 -8 0 -5 -12 -14 -26 -21 -39 -17 -239 -144 -242 -153
-2 -4 -8 -8 -13 -8 -8 0 -107 -66 -119 -80 -3 -3 -38 -29 -78 -58 -40 -29 -82
-60 -93 -70 -11 -9 -29 -24 -39 -32 -110 -92 -170 -146 -170 -152 0 -5 -4 -8
-10 -8 -12 0 -250 -237 -337 -335 -69 -78 -85 -97 -128 -151 -16 -21 -38 -46
-47 -56 -10 -10 -18 -20 -18 -22 0 -2 -35 -51 -77 -108 -43 -58 -84 -113 -91
-124 -116 -177 -139 -214 -134 -214 4 0 3 -4 -3 -8 -5 -4 -16 -18 -23 -31 -8
-13 -23 -40 -34 -60 -12 -20 -30 -54 -41 -76 -11 -22 -25 -47 -32 -55 -6 -8
-24 -44 -40 -80 -16 -36 -35 -72 -42 -81 -7 -8 -13 -20 -13 -26 0 -6 -18 -49
-40 -96 -82 -176 -197 -507 -245 -707 -29 -122 -45 -190 -49 -215 -3 -16 -8
-41 -11 -55 -3 -14 -8 -41 -11 -60 -3 -19 -7 -42 -9 -50 -2 -8 -7 -37 -10 -65
-4 -27 -9 -63 -11 -80 -5 -29 -12 -88 -19 -170 -27 -281 -23 -712 10 -955 8
-57 16 -113 21 -145 2 -16 7 -48 10 -70 3 -22 12 -71 20 -110 19 -88 21 -98
34 -165 6 -30 14 -62 17 -70 3 -8 8 -24 10 -34 4 -25 62 -226 70 -246 3 -8 7
-19 8 -25 5 -19 57 -170 70 -200 7 -16 18 -46 25 -65 7 -19 26 -64 42 -100 16
-36 33 -74 37 -85 42 -99 183 -373 243 -470 17 -27 36 -59 42 -70 6 -11 43
-67 81 -123 39 -57 75 -111 80 -120 6 -9 12 -19 15 -22 3 -3 18 -23 35 -45 16
-22 34 -45 40 -51 5 -7 19 -24 30 -40 20 -27 60 -79 80 -100 5 -6 30 -35 55
-65 99 -117 273 -295 384 -394 31 -27 69 -61 84 -75 43 -40 110 -93 202 -164
47 -35 92 -71 101 -79 9 -8 30 -23 48 -33 17 -10 31 -22 31 -27 0 -4 4 -6 9
-3 5 4 11 3 13 -2 4 -10 96 -72 108 -72 4 0 10 -4 12 -8 2 -5 44 -32 93 -61
50 -30 101 -61 115 -69 14 -9 31 -17 39 -18 8 -2 17 -6 20 -11 11 -15 68 -43
75 -36 3 3 6 2 6 -4 0 -21 523 -253 570 -253 9 0 20 -4 25 -9 9 -9 261 -88
353 -110 23 -6 61 -16 85 -22 23 -6 49 -12 57 -14 8 -2 15 -4 15 -5 0 -1 11
-3 25 -5 14 -1 36 -5 50 -9 13 -3 42 -8 64 -12 22 -3 43 -7 47 -10 3 -2 24 -6
45 -9 21 -2 50 -7 64 -9 25 -5 71 -11 170 -21 30 -4 71 -9 90 -13 47 -8 842
-12 855 -4 6 4 19 7 30 8 39 2 157 15 178 20 12 2 34 5 50 6 15 1 27 6 27 10
0 4 6 5 13 2 7 -2 60 5 118 16 57 12 115 23 129 26 56 11 268 66 310 81 25 8
52 16 60 17 8 1 22 5 30 8 8 4 67 24 130 45 63 21 118 43 122 48 5 6 8 6 8 1
0 -6 5 -5 12 2 7 7 18 12 25 12 12 0 34 9 148 61 50 22 87 36 99 37 5 0 12 4
15 9 3 4 68 39 144 77 76 38 185 97 244 132 58 35 110 64 114 64 5 0 9 4 9 8
0 5 10 14 23 21 41 22 147 91 157 101 3 4 49 38 102 78 53 39 107 80 120 90
272 229 448 402 639 627 19 22 37 42 42 43 4 2 7 8 7 14 0 5 7 17 16 25 28 29
164 212 164 222 0 5 4 11 8 13 5 2 40 51 78 109 95 145 93 141 106 169 7 14
15 27 18 30 14 14 139 250 170 322 5 13 14 30 19 38 18 30 61 131 61 144 0 8
4 16 8 18 10 4 137 341 147 391 2 9 6 21 9 25 3 5 7 19 10 33 3 13 17 65 31
114 15 50 28 101 31 115 3 14 9 41 14 60 5 19 11 46 14 60 2 14 7 36 10 50 3
14 8 39 11 55 37 205 44 252 50 315 2 19 7 60 10 90 3 30 8 89 11 130 8 106 8
549 0 645 -16 193 -24 267 -32 303 -3 15 -7 43 -10 62 -2 19 -7 51 -10 70 -3
19 -6 37 -7 40 0 3 -4 21 -9 40 -4 19 -10 51 -14 70 -10 64 -56 256 -72 300
-3 8 -6 22 -8 30 -5 24 -35 123 -47 155 -7 17 -12 32 -12 35 -2 19 -117 324
-135 358 -15 30 -64 137 -65 142 -1 9 -96 198 -103 205 -4 4 -7 10 -7 13 0 7
-45 86 -123 217 -20 33 -40 62 -44 63 -4 2 -8 8 -8 14 0 11 -61 101 -72 106
-5 2 -8 8 -8 13 0 10 -156 224 -183 251 -9 9 -17 21 -17 26 0 6 -3 12 -7 14
-5 2 -33 32 -63 68 -30 36 -71 83 -90 105 -61 68 -312 318 -375 372 -33 29
-71 62 -85 74 -14 12 -41 33 -60 48 -19 14 -37 28 -40 31 -3 3 -25 21 -50 40
-25 19 -46 38 -48 42 -2 5 -8 8 -13 8 -8 0 -71 45 -122 86 -9 8 -19 14 -21 14
-3 0 -45 27 -94 60 -50 33 -95 60 -100 60 -6 0 -12 4 -14 8 -1 5 -34 26 -73
48 -38 21 -83 47 -100 56 -113 65 -456 224 -560 259 -22 7 -44 17 -49 21 -6 4
-17 8 -26 8 -10 0 -31 7 -48 15 -17 9 -39 18 -49 20 -58 14 -169 50 -171 57
-2 5 -7 6 -12 3 -5 -3 -28 1 -52 9 -50 16 -239 63 -283 70 -16 2 -30 5 -30 6
0 1 -9 3 -20 5 -25 3 -209 34 -255 42 -38 7 -40 7 -150 17 -41 4 -88 9 -105
12 -35 5 -611 14 -616 9z"/>
</g>
</svg>
